HIERARCHY
ROOT Pelvis
{
	OFFSET 0.00000 0.00000 0.00000
	CHANNELS 6 Xposition Yposition Zposition Zrotation Yrotation Xrotation
	JOINT LHipJoint
	{
		OFFSET 0 0 0
		CHANNELS 3 Zrotation Yrotation Xrotation
		JOINT LeftUpLeg
		{
			OFFSET 1.57314 -1.85774 0.63783
			CHANNELS 3 Zrotation Yrotation Xrotation
			JOINT LeftLeg
			{
				OFFSET 2.57982 -7.08799 0.00000
				CHANNELS 3 Zrotation Yrotation Xrotation
				JOINT LeftFoot
				{
					OFFSET 2.63993 -7.25315 0.00000
					CHANNELS 3 Zrotation Yrotation Xrotation
					JOINT LeftToeBase
					{
						OFFSET 0.16864 -0.46332 2.12791
						CHANNELS 3 Zrotation Yrotation Xrotation
						End Site
						{
							OFFSET 0.00000 -0.00000 1.09718
						}
					}
				}
			}
		}
	}
	JOINT RHipJoint
	{
		OFFSET 0 0 0
		CHANNELS 3 Zrotation Yrotation Xrotation
		JOINT RightUpLeg
		{
			OFFSET -1.56006 -1.85774 0.63784
			CHANNELS 3 Zrotation Yrotation Xrotation
			JOINT RightLeg
			{
				OFFSET -2.54246 -6.98536 0.00000
				CHANNELS 3 Zrotation Yrotation Xrotation
				JOINT RightFoot
				{
					OFFSET -2.65791 -7.30256 0.00000
					CHANNELS 3 Zrotation Yrotation Xrotation
					JOINT RightToeBase
					{
						OFFSET -0.18435 -0.50650 2.16316
						CHANNELS 3 Zrotation Yrotation Xrotation
						End Site
						{
							OFFSET -0.00000 -0.00000 1.11780
						}
					}
				}
			}
		}
	}
	JOINT LowerBack
	{
		OFFSET 0 0 0
		CHANNELS 3 Zrotation Yrotation Xrotation
		JOINT Spine
		{
			OFFSET -0.00136 1.92812 -0.29638
			CHANNELS 3 Zrotation Yrotation Xrotation
			JOINT Spine1
			{
				OFFSET -0.00528 1.96223 -0.02928
				CHANNELS 3 Zrotation Yrotation Xrotation
				JOINT Neck
				{
					OFFSET 0 0 0
					CHANNELS 3 Zrotation Yrotation Xrotation
					JOINT Neck1
					{
						OFFSET -0.01015 1.75586 0.07797
						CHANNELS 3 Zrotation Yrotation Xrotation
						JOINT Head
						{
							OFFSET 0.05540 1.72452 0.04558
							CHANNELS 3 Zrotation Yrotation Xrotation
							End Site
							{
								OFFSET 0.02170 1.79958 0.00864
							}
						}
					}
				}
				JOINT LeftShoulder
				{
					OFFSET 0 0 0
					CHANNELS 3 Zrotation Yrotation Xrotation
					JOINT LeftArm
					{
						OFFSET 3.16292 1.29277 -0.65728
						CHANNELS 3 Zrotation Yrotation Xrotation
						JOINT LeftForeArm
						{
							OFFSET 5.52302 -0.00000 -0.00000
							CHANNELS 3 Zrotation Yrotation Xrotation
							JOINT LeftHand
							{
								OFFSET 3.58675 -0.00000 -0.00000
								CHANNELS 3 Zrotation Yrotation Xrotation
								JOINT LeftFingerBase
								{
									OFFSET 0 0 0
									CHANNELS 3 Zrotation Yrotation Xrotation
									JOINT LeftHandIndex1
									{
										OFFSET 0.53641 -0.00000 -0.00000
										CHANNELS 3 Zrotation Yrotation Xrotation
										End Site
										{
											OFFSET 0.43247 -0.00000 -0.00000
										}
									}
								}
								JOINT LThumb
								{
									OFFSET 0 0 0
									CHANNELS 3 Zrotation Yrotation Xrotation
									End Site
									{
										OFFSET 0.43907 -0.00000 0.43907
									}
								}
							}
						}
					}
				}
				JOINT RightShoulder
				{
					OFFSET 0 0 0
					CHANNELS 3 Zrotation Yrotation Xrotation
					JOINT RightArm
					{
						OFFSET -3.08296 1.43376 -0.52927
						CHANNELS 3 Zrotation Yrotation Xrotation
						JOINT RightForeArm
						{
							OFFSET -5.84780 -0.00000 0.00000
							CHANNELS 3 Zrotation Yrotation Xrotation
							JOINT RightHand
							{
								OFFSET -3.62717 -0.00000 -0.00000
								CHANNELS 3 Zrotation Yrotation Xrotation
								JOINT RightFingerBase
								{
									OFFSET 0 0 0
									CHANNELS 3 Zrotation Yrotation Xrotation
									JOINT RightHandIndex1
									{
										OFFSET -0.65052 -0.00000 -0.00000
										CHANNELS 3 Zrotation Yrotation Xrotation
										End Site
										{
											OFFSET -0.52446 -0.00000 -0.00000
										}
									}
								}
								JOINT RThumb
								{
									OFFSET 0 0 0
									CHANNELS 3 Zrotation Yrotation Xrotation
									End Site
									{
										OFFSET -0.53247 -0.00000 0.53247
									}
								}
							}
						}
					}
				}
			}
		}
	}
}
MOTION
Frames: 7
Frame Time: .0083333
-0.3228	18.5199	-14.9781	2.5405	1.0729	6.3268	0	0	0	-24.1185	6.6432	26.8875	0	0	0	4.1377	19.3993	37.4613	0.0023	-0.3115	-0.856	0	0	0	11.5464	14.6255	-43.5193	-9.5064	-17.1228	57.8254	-0.0132	-3.298	2.9242	-0.0437	1.3497	-3.7115	-4.8282	-4.2662	13.4012	0.7176	-6.3566	0.0324	4.6539	-2.9243	-6.8539	-0.3182	3.407	-4.1924	-2.0634	4.4268	-8.5763	-0.6095	2.2516	-1.9265	0	0	0	-75.63	-10.4406	46.9915	138.587	-48.8851	-100.5028	0	0	-26.1214	37.7347	3.9663	3.064	-7.125	0	0	9.1918	34.8716	-2.3107	0	0	0	79.2291	-32.9628	30.8669	-63.7573	57.2308	-37.4844	0	0	2.2756	-46.5367	24.3312	-23.4959	7.125	0	0	-10.0851	2.8829	-10.7441
-0.2214	18.3745	-7.833	3.7805	-1.7954	5.0823	0	0	0	-29.0796	3.1495	14.1538	8.948	16.7741	55.9102	3.4028	10.669	33.3728	0.1066	-2.1052	-5.7965	0	0	0	16.0428	14.9609	-26.7657	-1.0589	-6.5428	18.3676	0.2795	-10.699	1.6823	-0.424	4.1792	-11.5814	-3.7164	-3.8445	12.8994	1.0721	-5.5623	0.8983	4.1819	-2.6212	-5.8018	-2.0446	3.0503	-3.8892	-1.3982	3.9847	-10.5786	-0.1472	2.087	-2.6995	0	0	0	-78.6808	3.007	48.5373	130.3584	-52.8499	-94.1118	0	0	-24.0721	37.9565	7.4462	5.7726	-7.125	0	0	9.6963	39.2145	-1.3976	0	0	0	78.4077	-28.1769	30.1356	-69.1526	58.2924	-42.0491	0	0	2.0899	-46.6211	24.1425	-23.4045	7.125	0	0	-10.1813	2.687	-10.8164
-0.3283	17.255	-0.3197	-4.9594	-3.0536	3.083	0	0	0	-5.81	3.7007	-28.5352	29.1609	17.8554	117.7421	1.215	-5.761	23.6366	0.0014	-0.2429	-0.6673	0	0	0	32.7917	9.6615	-8.77	-4.5881	-12.9044	39.0115	-0.9536	-5.0085	-20.9096	-0.073	1.7433	-4.7968	4.8157	-1.8061	17.4986	2.6885	-1.2496	2.1788	0.4518	-0.7068	-7.5102	0.8382	2.0251	-2.3525	-2.8986	2.4431	-12.0559	-1.1459	1.2733	-3.4251	0	0	0	-83.9898	21.9029	41.1484	104.2151	-59.2225	-72.2785	0	0	-32.6542	42.0089	9.1576	8.1575	-7.125	0	0	13.5298	41.8259	-1.0813	0	0	0	78.643	0.6454	37.4056	-95.4469	59.8876	-64.7153	0	0	3.314	-48.5106	25.8423	-26.2374	7.125	0	0	-10.7857	5.6236	-11.9961
-0.2642	18.3664	8.7174	-5.1478	-0.9842	4.1487	0	0	0	-8.6855	-14.821	-42.3503	12.1664	18.4601	66.5154	-0.1253	-7.8714	7.955	0.4264	-4.1907	-11.6137	0	0	0	29.5054	-2.4054	33.1889	0	0	0	-3.6091	-17.0338	34.735	-0.651	-5.161	14.3682	7.491	1.1882	11.462	0.2912	2.5657	0.5717	-4.3201	1.075	-5.5211	-0.9422	-0.9472	-5.3162	1.3534	-1.1927	-3.546	0.5472	-0.5825	-0.1963	0	0	0	-83.0239	35.7619	38.1651	116.2973	-57.2185	-82.5615	0	0	-29.5096	41.4167	9.1446	7.9806	-7.125	0	0	12.9847	41.7334	-1.0662	0	0	0	77.0806	0.9901	44.5637	-122.3298	55.6565	-87.5901	0	0	1.0675	-47.4449	25.8283	-25.3861	7.125	0	0	-10.2	5.1123	-11.2412
-0.3954	18.1137	15.8469	-5.2383	0.5008	3.0081	0	0	0	-13.3512	-11.3819	-27.8723	1.3893	7.4574	21.0777	0.2372	-0.5328	9.4087	1.0282	-6.45	-18.0958	0	0	0	32.6847	0.4054	17.7036	-8.9296	-16.7622	55.8463	-2.6369	-13.1121	29.3714	-1.0664	-6.565	18.4329	5.0571	0.8878	12.4742	-0.2259	1.8626	1.1033	-3.4106	0.7905	-5.6676	-1.0137	-0.6696	-4.7477	1.8088	-0.7696	-7.0918	0.7252	-0.3793	-1.3869	0	0	0	-84.8161	25.9028	36.2408	120.5824	-56.1527	-86.1431	0	0	-31.7904	42.1917	11.1252	9.9212	-7.125	0	0	13.9934	44.3821	-0.2178	0	0	0	77.8296	-5.6605	48.0359	-104.0538	59.2404	-72.1399	0	0	0.4339	-47.3893	25.3769	-24.9804	7.125	0	0	-10.29	4.5372	-11.2486
-0.3846	17.451	23.3565	0.9337	-0.7649	2.0299	0	0	0	-25.4448	-5.2868	-9.5278	4.2841	12.5291	37.6305	0.6496	-8.6349	-14.6919	0.792	-5.6809	-15.8612	0	0	0	16.3138	5.0879	-24.133	-25.3742	-19.293	105.8931	-1.0349	-14.7723	19.5601	-1.1076	-6.6866	18.7902	-2.5131	-0.0458	15.7447	-1.9449	-0.6283	2.1197	-0.5103	-0.2668	-6.5658	-2.2511	0.0589	-4.6573	3.5608	0.3835	-9.7402	1.5168	0.1918	-2.2966	0	0	0	-80.9634	-10.1874	44.4951	127.4682	-53.9669	-91.791	0	0	-28.8683	38.9572	11.0088	8.7772	-7.125	0	0	10.9074	43.7532	-0.3399	0	0	0	83.3333	-18.232	36.2132	-74.2141	59.0372	-46.3732	0	0	-0.5501	-51.8345	24.8063	-28.094	7.125	0	0	-12.8991	5.9961	-14.5319
-0.3228	18.5199	32.5207	2.5405	1.0729	6.3268	0	0	0	-24.1185	6.6432	26.8875	0	0	0	4.1377	19.3993	37.4613	0.0023	-0.3115	-0.856	0	0	0	11.5464	14.6255	-43.5193	-9.5064	-17.1228	57.8254	-0.0132	-3.298	2.9242	-0.0437	1.3497	-3.7115	-4.8282	-4.2662	13.4012	0.7176	-6.3566	0.0324	4.6539	-2.9243	-6.8539	-0.3182	3.407	-4.1924	-2.0634	4.4268	-8.5763	-0.6095	2.2516	-1.9265	0	0	0	-75.63	-10.4406	46.9915	138.587	-48.8851	-100.5028	0	0	-26.1214	37.7347	3.9663	3.064	-7.125	0	0	9.1918	34.8716	-2.3107	0	0	0	79.2291	-32.9628	30.8669	-63.7573	57.2308	-37.4844	0	0	2.2756	-46.5367	24.3312	-23.4959	7.125	0	0	-10.0851	2.8829	-10.7441
